REM DIRINDEX 1\2,1\3,1\4
REM DIRNAME folder01,folder02,folder03,folder04
TITLE ""
FILE "DISC1Track14.mp3" MP3
  TRACK 01 AUDIO
    TITLE "4:cjc038_0313"
    INDEX 01 00:00:00
  TRACK 02 AUDIO
    TITLE "0:"
    INDEX 01 00:02:43
  TRACK 03 AUDIO
    TITLE "2:cjc038_0314"
    INDEX 01 00:04:07
  TRACK 04 AUDIO
    TITLE "0:"
    INDEX 01 00:08:42
  TRACK 05 AUDIO
    TITLE "3:cjc038_0315"
    INDEX 01 00:08:56
  TRACK 06 AUDIO
    TITLE "0:"
    INDEX 01 00:13:02
  TRACK 07 AUDIO
    TITLE "2:cjc038_0316"
    INDEX 01 00:13:53
  TRACK 08 AUDIO
    TITLE "0:"
    INDEX 01 00:15:03
  TRACK 09 AUDIO
    TITLE "3:cjc038_0317"
    INDEX 01 00:15:11
  TRACK 10 AUDIO
    TITLE "0:"
    INDEX 01 00:16:26
  TRACK 11 AUDIO
    TITLE "2:cjc038_0318"
    INDEX 01 00:17:10
  TRACK 12 AUDIO
    TITLE "0:"
    INDEX 01 00:20:34
  TRACK 13 AUDIO
    TITLE "2:cjc038_0319"
    INDEX 01 00:20:36
  TRACK 14 AUDIO
    TITLE "0:"
    INDEX 01 00:22:09
  TRACK 15 AUDIO
    TITLE "3:cjc038_0320"
    INDEX 01 00:22:21
  TRACK 16 AUDIO
    TITLE "0:"
    INDEX 01 00:25:35
  TRACK 17 AUDIO
    TITLE "3:cjc038_0321"
    INDEX 01 00:25:46
  TRACK 18 AUDIO
    TITLE "0:"
    INDEX 01 00:27:18
  TRACK 19 AUDIO
    TITLE "2:cjc038_0322"
    INDEX 01 00:28:66
  TRACK 20 AUDIO
    TITLE "0:"
    INDEX 01 00:33:69
  TRACK 21 AUDIO
    TITLE "3:cjc038_0323"
    INDEX 01 00:34:04
  TRACK 22 AUDIO
    TITLE "0:"
    INDEX 01 00:39:00
  TRACK 23 AUDIO
    TITLE "2:cjc038_0324"
    INDEX 01 00:39:56
  TRACK 24 AUDIO
    TITLE "0:"
    INDEX 01 00:43:60
  TRACK 25 AUDIO
    TITLE "3:cjc038_0325"
    INDEX 01 00:43:66
  TRACK 26 AUDIO
    TITLE "0:"
    INDEX 01 00:47:60
  TRACK 27 AUDIO
    TITLE "2:cjc038_0326"
    INDEX 01 00:48:42
  TRACK 28 AUDIO
    TITLE "0:"
    INDEX 01 00:50:09
  TRACK 29 AUDIO
    TITLE "3:cjc038_0327"
    INDEX 01 00:50:15
  TRACK 30 AUDIO
    TITLE "0:"
    INDEX 01 00:51:48
  TRACK 31 AUDIO
    TITLE "2:cjc038_0328"
    INDEX 01 00:52:26
  TRACK 32 AUDIO
    TITLE "0:"
    INDEX 01 00:56:72
  TRACK 33 AUDIO
    TITLE "3:cjc038_0329"
    INDEX 01 00:57:03
  TRACK 34 AUDIO
    TITLE "0:"
    INDEX 01 01:01:42
  TRACK 35 AUDIO
    TITLE "2:cjc038_0330"
    INDEX 01 01:02:22
  TRACK 36 AUDIO
    TITLE "0:"
    INDEX 01 01:06:12
  TRACK 37 AUDIO
    TITLE "3:cjc038_0331"
    INDEX 01 01:06:20
  TRACK 38 AUDIO
    TITLE "0:"
    INDEX 01 01:09:69
  TRACK 39 AUDIO
    TITLE "2:cjc038_0332"
    INDEX 01 01:10:57
  TRACK 40 AUDIO
    TITLE "0:"
    INDEX 01 01:13:12
  TRACK 41 AUDIO
    TITLE "3:cjc038_0333"
    INDEX 01 01:13:22
  TRACK 42 AUDIO
    TITLE "0:"
    INDEX 01 01:15:35
  TRACK 43 AUDIO
    TITLE "2:cjc038_0334"
    INDEX 01 01:16:24
  TRACK 44 AUDIO
    TITLE "0:"
    INDEX 01 01:18:23
  TRACK 45 AUDIO
    TITLE "3:cjc038_0335"
    INDEX 01 01:18:33
  TRACK 46 AUDIO
    TITLE "0:"
    INDEX 01 01:20:06
  TRACK 47 AUDIO
    TITLE "2:cjc038_0336"
    INDEX 01 01:21:02
  TRACK 48 AUDIO
    TITLE "0:"
    INDEX 01 01:25:62
  TRACK 49 AUDIO
    TITLE "3:cjc038_0337"
    INDEX 01 01:25:70
  TRACK 50 AUDIO
    TITLE "0:"
    INDEX 01 01:30:54
  TRACK 51 AUDIO
    TITLE "2:cjc038_0338"
    INDEX 01 01:31:24
  TRACK 52 AUDIO
    TITLE "0:"
    INDEX 01 01:34:30
  TRACK 53 AUDIO
    TITLE "3:cjc038_0339"
    INDEX 01 01:34:40
  TRACK 54 AUDIO
    TITLE "0:"
    INDEX 01 01:37:28
  TRACK 55 AUDIO
    TITLE "2:cjc038_0340"
    INDEX 01 01:38:14
  TRACK 56 AUDIO
    TITLE "0:"
    INDEX 01 01:40:17
  TRACK 57 AUDIO
    TITLE "3:cjc038_0341"
    INDEX 01 01:40:27
  TRACK 58 AUDIO
    TITLE "0:"
    INDEX 01 01:42:18
  TRACK 59 AUDIO
    TITLE "2:cjc038_0342"
    INDEX 01 01:43:02
  TRACK 60 AUDIO
    TITLE "0:"
    INDEX 01 01:45:08
  TRACK 61 AUDIO
    TITLE "3:cjc038_0343"
    INDEX 01 01:45:20
  TRACK 62 AUDIO
    TITLE "0:"
    INDEX 01 01:47:17
  TRACK 63 AUDIO
    TITLE "2:cjc038_0344"
    INDEX 01 01:48:03
  TRACK 64 AUDIO
    TITLE "0:"
    INDEX 01 01:50:41
  TRACK 65 AUDIO
    TITLE "3:cjc038_0345"
    INDEX 01 01:50:51
  TRACK 66 AUDIO
    TITLE "0:"
    INDEX 01 01:53:08
  TRACK 67 AUDIO
    TITLE "2:cjc038_0346"
    INDEX 01 01:53:63
  TRACK 68 AUDIO
    TITLE "0:"
    INDEX 01 01:56:12
  TRACK 69 AUDIO
    TITLE "3:cjc038_0347"
    INDEX 01 01:56:24
  TRACK 70 AUDIO
    TITLE "0:"
    INDEX 01 01:58:42
  TRACK 71 AUDIO
    TITLE "2:cjc038_0348"
    INDEX 01 01:59:18
  TRACK 72 AUDIO
    TITLE "0:"
    INDEX 01 02:02:60
  TRACK 73 AUDIO
    TITLE "3:cjc038_0349"
    INDEX 01 02:02:66
  TRACK 74 AUDIO
    TITLE "0:"
    INDEX 01 02:06:20
  TRACK 75 AUDIO
    TITLE "2:cjc038_0350"
    INDEX 01 02:07:06
  TRACK 76 AUDIO
    TITLE "0:"
    INDEX 01 02:09:56
  TRACK 77 AUDIO
    TITLE "3:cjc038_0351"
    INDEX 01 02:09:68
  TRACK 78 AUDIO
    TITLE "0:"
    INDEX 01 02:12:33
  TRACK 79 AUDIO
    TITLE "2:cjc038_0352"
    INDEX 01 02:13:09
  TRACK 80 AUDIO
    TITLE "0:"
    INDEX 01 02:16:15
  TRACK 81 AUDIO
    TITLE "3:cjc038_0353"
    INDEX 01 02:16:23
  TRACK 82 AUDIO
    TITLE "0:"
    INDEX 01 02:19:21
  TRACK 83 AUDIO
    TITLE "2:cjc038_0354"
    INDEX 01 02:20:03
  TRACK 84 AUDIO
    TITLE "0:"
    INDEX 01 02:22:17
  TRACK 85 AUDIO
    TITLE "3:cjc038_0355"
    INDEX 01 02:22:29
  TRACK 86 AUDIO
    TITLE "0:"
    INDEX 01 02:24:30
  TRACK 87 AUDIO
    TITLE "2:cjc038_0356"
    INDEX 01 02:25:12
  TRACK 88 AUDIO
    TITLE "0:"
    INDEX 01 02:27:30
  TRACK 89 AUDIO
    TITLE "3:cjc038_0357"
    INDEX 01 02:27:36
  TRACK 90 AUDIO
    TITLE "0:"
    INDEX 01 02:29:39
  TRACK 91 AUDIO
    TITLE "2:cjc038_0358"
    INDEX 01 02:30:27
  TRACK 92 AUDIO
    TITLE "0:"
    INDEX 01 02:32:71
  TRACK 93 AUDIO
    TITLE "3:cjc038_0359"
    INDEX 01 02:33:07
  TRACK 94 AUDIO
    TITLE "0:"
    INDEX 01 02:35:38
  TRACK 95 AUDIO
    TITLE "2:cjc038_0360"
    INDEX 01 02:36:21
  TRACK 96 AUDIO
    TITLE "0:"
    INDEX 01 02:39:18
  TRACK 97 AUDIO
    TITLE "3:cjc038_0361"
    INDEX 01 02:39:27
  TRACK 98 AUDIO
    TITLE "0:"
    INDEX 01 02:42:00
  TRACK 99 AUDIO
    TITLE "2:cjc038_0362"
    INDEX 01 02:42:69
  TRACK 100 AUDIO
    TITLE "0:"
    INDEX 01 02:45:71
  TRACK 101 AUDIO
    TITLE "3:cjc038_0363"
    INDEX 01 02:46:04
  TRACK 102 AUDIO
    TITLE "0:"
    INDEX 01 02:49:00
  TRACK 103 AUDIO
    TITLE "2:cjc038_0364"
    INDEX 01 02:49:55
  TRACK 104 AUDIO
    TITLE "0:"
    INDEX 01 02:52:09
  TRACK 105 AUDIO
    TITLE "3:cjc038_0365"
    INDEX 01 02:52:20
  TRACK 106 AUDIO
    TITLE "0:"
    INDEX 01 02:54:23
  TRACK 107 AUDIO
    TITLE "2:cjc038_0366"
    INDEX 01 02:55:11
  TRACK 108 AUDIO
    TITLE "0:"
    INDEX 01 02:57:33
  TRACK 109 AUDIO
    TITLE "3:cjc038_0367"
    INDEX 01 02:57:39
  TRACK 110 AUDIO
    TITLE "0:"
    INDEX 01 02:59:48
  TRACK 111 AUDIO
    TITLE "2:cjc038_0368"
    INDEX 01 03:00:32
  TRACK 112 AUDIO
    TITLE "0:"
    INDEX 01 03:04:08
  TRACK 113 AUDIO
    TITLE "3:cjc038_0369"
    INDEX 01 03:04:18
  TRACK 114 AUDIO
    TITLE "0:"
    INDEX 01 03:07:51
  TRACK 115 AUDIO
    TITLE "2:cjc038_0370"
    INDEX 01 03:08:43
  TRACK 116 AUDIO
    TITLE "0:"
    INDEX 01 03:11:59
  TRACK 117 AUDIO
    TITLE "3:cjc038_0371"
    INDEX 01 03:11:71
  TRACK 118 AUDIO
    TITLE "0:"
    INDEX 01 03:15:08
  TRACK 119 AUDIO
    TITLE "2:cjc038_0372"
    INDEX 01 03:15:59
  TRACK 120 AUDIO
    TITLE "0:"
    INDEX 01 03:19:52
  TRACK 121 AUDIO
    TITLE "3:cjc038_0373"
    INDEX 01 03:19:60
  TRACK 122 AUDIO
    TITLE "0:"
    INDEX 01 03:23:46
  TRACK 123 AUDIO
    TITLE "2:cjc038_0374"
    INDEX 01 03:24:26
  TRACK 124 AUDIO
    TITLE "0:"
    INDEX 01 03:27:36
  TRACK 125 AUDIO
    TITLE "3:cjc038_0375"
    INDEX 01 03:27:44
  TRACK 126 AUDIO
    TITLE "0:"
    INDEX 01 03:30:46
  TRACK 127 AUDIO
    TITLE "2:cjc038_0376"
    INDEX 01 03:31:26
  TRACK 128 AUDIO
    TITLE "0:"
    INDEX 01 03:33:41
  TRACK 129 AUDIO
    TITLE "3:cjc038_0377"
    INDEX 01 03:33:55
  TRACK 130 AUDIO
    TITLE "0:"
    INDEX 01 03:35:55
  TRACK 131 AUDIO
    TITLE "2:cjc038_0378"
    INDEX 01 03:36:37
  TRACK 132 AUDIO
    TITLE "0:"
    INDEX 01 03:38:48
  TRACK 133 AUDIO
    TITLE "3:cjc038_0379"
    INDEX 01 03:38:54
  TRACK 134 AUDIO
    TITLE "0:"
    INDEX 01 03:40:60
  TRACK 135 AUDIO
    TITLE "2:cjc038_0380"
    INDEX 01 03:41:36
  TRACK 136 AUDIO
    TITLE "0:"
    INDEX 01 03:44:17
  TRACK 137 AUDIO
    TITLE "3:cjc038_0381"
    INDEX 01 03:44:25
  TRACK 138 AUDIO
    TITLE "0:"
    INDEX 01 03:46:63
  TRACK 139 AUDIO
    TITLE "2:cjc038_0382"
    INDEX 01 03:48:50
  TRACK 140 AUDIO
    TITLE "0:"
    INDEX 01 03:50:39
  TRACK 141 AUDIO
    TITLE "2:cjc038_0383"
    INDEX 01 03:50:47
  TRACK 142 AUDIO
    TITLE "0:"
    INDEX 01 03:51:74
  TRACK 143 AUDIO
    TITLE "3:cjc038_0384"
    INDEX 01 03:52:07
  TRACK 144 AUDIO
    TITLE "0:"
    INDEX 01 03:53:69
  TRACK 145 AUDIO
    TITLE "3:cjc038_0385"
    INDEX 01 03:53:73
  TRACK 146 AUDIO
    TITLE "0:"
    INDEX 01 03:55:27
  TRACK 147 AUDIO
    TITLE "2:cjc038_0386"
    INDEX 01 03:56:03
  TRACK 148 AUDIO
    TITLE "0:"
    INDEX 01 04:00:12
  TRACK 149 AUDIO
    TITLE "3:cjc038_0387"
    INDEX 01 04:00:20
  TRACK 150 AUDIO
    TITLE "0:"
    INDEX 01 04:04:20
  TRACK 151 AUDIO
    TITLE "2:cjc038_0388"
    INDEX 01 04:05:00
  TRACK 152 AUDIO
    TITLE "0:"
    INDEX 01 04:09:35
  TRACK 153 AUDIO
    TITLE "3:cjc038_0389"
    INDEX 01 04:09:41
  TRACK 154 AUDIO
    TITLE "0:"
    INDEX 01 04:13:68
  TRACK 155 AUDIO
    TITLE "2:cjc038_0390"
    INDEX 01 04:14:50
  TRACK 156 AUDIO
    TITLE "0:"
    INDEX 01 04:17:11
  TRACK 157 AUDIO
    TITLE "3:cjc038_0391"
    INDEX 01 04:17:19
  TRACK 158 AUDIO
    TITLE "0:"
    INDEX 01 04:19:45
  TRACK 159 AUDIO
    TITLE "2:cjc038_0392"
    INDEX 01 04:20:27
  TRACK 160 AUDIO
    TITLE "0:"
    INDEX 01 04:21:71
  TRACK 161 AUDIO
    TITLE "3:cjc038_0393"
    INDEX 01 04:22:04
  TRACK 162 AUDIO
    TITLE "0:"
    INDEX 01 04:23:47
  TRACK 163 AUDIO
    TITLE "2:cjc038_0394"
    INDEX 01 04:24:23
  TRACK 164 AUDIO
    TITLE "0:"
    INDEX 01 04:26:65
  TRACK 165 AUDIO
    TITLE "3:cjc038_0395"
    INDEX 01 04:26:72
  TRACK 166 AUDIO
    TITLE "0:"
    INDEX 01 04:29:30
  TRACK 167 AUDIO
    TITLE "2:cjc038_0396"
    INDEX 01 04:30:11
  TRACK 168 AUDIO
    TITLE "0:"
    INDEX 01 04:33:02
  TRACK 169 AUDIO
    TITLE "3:cjc038_0397"
    INDEX 01 04:33:10
  TRACK 170 AUDIO
    TITLE "0:"
    INDEX 01 04:35:65
  TRACK 171 AUDIO
    TITLE "2:cjc038_0398"
    INDEX 01 04:37:45
  TRACK 172 AUDIO
    TITLE "0:"
    INDEX 01 04:39:53
  TRACK 173 AUDIO
    TITLE "3:cjc038_0399"
    INDEX 01 04:39:63
  TRACK 174 AUDIO
    TITLE "0:"
    INDEX 01 04:41:60
  TRACK 175 AUDIO
    TITLE "2:cjc038_0400"
    INDEX 01 04:42:46
  TRACK 176 AUDIO
    TITLE "0:"
    INDEX 01 04:45:21
  TRACK 177 AUDIO
    TITLE "3:cjc038_0401"
    INDEX 01 04:45:31
  TRACK 178 AUDIO
    TITLE "0:"
    INDEX 01 04:47:63
  TRACK 179 AUDIO
    TITLE "2:cjc038_0402"
    INDEX 01 04:48:52
  TRACK 180 AUDIO
    TITLE "0:"
    INDEX 01 04:50:24
  TRACK 181 AUDIO
    TITLE "3:cjc038_0403"
    INDEX 01 04:50:32
  TRACK 182 AUDIO
    TITLE "0:"
    INDEX 01 04:51:72
  TRACK 183 AUDIO
    TITLE "2:cjc038_0404"
    INDEX 01 04:52:52
  TRACK 184 AUDIO
    TITLE "0:"
    INDEX 01 04:54:31
  TRACK 185 AUDIO
    TITLE "3:cjc038_0405"
    INDEX 01 04:54:45
  TRACK 186 AUDIO
    TITLE "0:"
    INDEX 01 04:56:11
  TRACK 187 AUDIO
    TITLE "2:cjc038_0406"
    INDEX 01 04:57:59
  TRACK 188 AUDIO
    TITLE "0:"
    INDEX 01 05:00:50
  TRACK 189 AUDIO
    TITLE "3:cjc038_0407"
    INDEX 01 05:00:58
  TRACK 190 AUDIO
    TITLE "0:"
    INDEX 01 05:03:34
  TRACK 191 AUDIO
    TITLE "2:cjc038_0408"
    INDEX 01 05:04:16
  TRACK 192 AUDIO
    TITLE "0:"
    INDEX 01 05:07:22
  TRACK 193 AUDIO
    TITLE "3:cjc038_0409"
    INDEX 01 05:07:30
  TRACK 194 AUDIO
    TITLE "0:"
    INDEX 01 05:10:30
  TRACK 195 AUDIO
    TITLE "2:cjc038_0410"
    INDEX 01 05:11:01
  TRACK 196 AUDIO
    TITLE "0:"
    INDEX 01 05:12:39
  TRACK 197 AUDIO
    TITLE "3:cjc038_0411"
    INDEX 01 05:12:45
  TRACK 198 AUDIO
    TITLE "0:"
    INDEX 01 05:13:72
  TRACK 199 AUDIO
    TITLE "2:cjc038_0412"
    INDEX 01 05:14:54
  TRACK 200 AUDIO
    TITLE "0:"
    INDEX 01 05:16:53
  TRACK 201 AUDIO
    TITLE "3:cjc038_0413"
    INDEX 01 05:16:64
  TRACK 202 AUDIO
    TITLE "0:"
    INDEX 01 05:18:54
  TRACK 203 AUDIO
    TITLE "2:cjc038_0414"
    INDEX 01 05:19:29
  TRACK 204 AUDIO
    TITLE "0:"
    INDEX 01 05:20:66
  TRACK 205 AUDIO
    TITLE "3:cjc038_0415"
    INDEX 01 05:21:03
  TRACK 206 AUDIO
    TITLE "0:"
    INDEX 01 05:22:30
  TRACK 207 AUDIO
    TITLE "2:cjc038_0416"
    INDEX 01 05:23:12
  TRACK 208 AUDIO
    TITLE "0:"
    INDEX 01 05:25:24
  TRACK 209 AUDIO
    TITLE "3:cjc038_0417"
    INDEX 01 05:25:30
  TRACK 210 AUDIO
    TITLE "0:"
    INDEX 01 05:27:33
  TRACK 211 AUDIO
    TITLE "2:cjc038_0418"
    INDEX 01 05:28:11
  TRACK 212 AUDIO
    TITLE "0:"
    INDEX 01 05:31:17
  TRACK 213 AUDIO
    TITLE "3:cjc038_0419"
    INDEX 01 05:31:25
  TRACK 214 AUDIO
    TITLE "0:"
    INDEX 01 05:34:17
  TRACK 215 AUDIO
    TITLE "2:cjc038_0420"
    INDEX 01 05:35:03
  TRACK 216 AUDIO
    TITLE "0:"
    INDEX 01 05:38:03
  TRACK 217 AUDIO
    TITLE "3:cjc038_0421"
    INDEX 01 05:38:09
  TRACK 218 AUDIO
    TITLE "0:"
    INDEX 01 05:41:02
  TRACK 219 AUDIO
    TITLE "2:cjc038_0422"
    INDEX 01 05:41:58
  TRACK 220 AUDIO
    TITLE "0:"
    INDEX 01 05:46:36
  TRACK 221 AUDIO
    TITLE "3:cjc038_0423"
    INDEX 01 05:46:48
  TRACK 222 AUDIO
    TITLE "0:"
    INDEX 01 05:51:12
  TRACK 223 AUDIO
    TITLE "2:cjc038_0424"
    INDEX 01 05:52:68
  TRACK 224 AUDIO
    TITLE "0:"
    INDEX 01 05:55:17
  TRACK 225 AUDIO
    TITLE "3:cjc038_0425"
    INDEX 01 05:55:21
  TRACK 226 AUDIO
    TITLE "0:"
    INDEX 01 05:57:30
  TRACK 227 AUDIO
    TITLE "2:cjc038_0426"
    INDEX 01 05:58:16
  TRACK 228 AUDIO
    TITLE "0:"
    INDEX 01 06:00:54
  TRACK 229 AUDIO
    TITLE "3:cjc038_0427"
    INDEX 01 06:00:62
  TRACK 230 AUDIO
    TITLE "0:"
    INDEX 01 06:03:09
  TRACK 231 AUDIO
    TITLE "2:cjc038_0428"
    INDEX 01 06:03:70
  TRACK 232 AUDIO
    TITLE "0:"
    INDEX 01 06:06:47
  TRACK 233 AUDIO
    TITLE "3:cjc038_0429"
    INDEX 01 06:06:53
  TRACK 234 AUDIO
    TITLE "0:"
    INDEX 01 06:09:25
  TRACK 235 AUDIO
    TITLE "2:cjc038_0430"
    INDEX 01 06:10:01
  TRACK 236 AUDIO
    TITLE "0:"
    INDEX 01 06:12:57
  TRACK 237 AUDIO
    TITLE "3:cjc038_0431"
    INDEX 01 06:12:65
  TRACK 238 AUDIO
    TITLE "0:"
    INDEX 01 06:15:32
  TRACK 239 AUDIO
    TITLE "2:cjc038_0432"
    INDEX 01 06:16:18
  TRACK 240 AUDIO
    TITLE "0:"
    INDEX 01 06:18:60
  TRACK 241 AUDIO
    TITLE "3:cjc038_0433"
    INDEX 01 06:18:67
  TRACK 242 AUDIO
    TITLE "0:"
    INDEX 01 06:21:25
  TRACK 243 AUDIO
    TITLE "2:cjc038_0434"
    INDEX 01 06:22:08
  TRACK 244 AUDIO
    TITLE "0:"
    INDEX 01 06:24:45
  TRACK 245 AUDIO
    TITLE "3:cjc038_0435"
    INDEX 01 06:24:54
  TRACK 246 AUDIO
    TITLE "0:"
    INDEX 01 06:27:06
  TRACK 247 AUDIO
    TITLE "2:cjc038_0436"
    INDEX 01 06:27:63
  TRACK 248 AUDIO
    TITLE "0:"
    INDEX 01 06:31:05
  TRACK 249 AUDIO
    TITLE "3:cjc038_0437"
    INDEX 01 06:31:11
  TRACK 250 AUDIO
    TITLE "0:"
    INDEX 01 06:34:16
  TRACK 251 AUDIO
    TITLE "2:cjc038_0438"
    INDEX 01 06:35:70
  TRACK 252 AUDIO
    TITLE "0:"
    INDEX 01 06:38:15
  TRACK 253 AUDIO
    TITLE "3:cjc038_0439"
    INDEX 01 06:38:21
  TRACK 254 AUDIO
    TITLE "0:"
    INDEX 01 06:40:32
  TRACK 255 AUDIO
    TITLE "2:cjc038_0440"
    INDEX 01 06:41:14
  TRACK 256 AUDIO
    TITLE "0:"
    INDEX 01 06:44:02
  TRACK 257 AUDIO
    TITLE "3:cjc038_0441"
    INDEX 01 06:44:10
  TRACK 258 AUDIO
    TITLE "0:"
    INDEX 01 06:46:62
  TRACK 259 AUDIO
    TITLE "2:cjc038_0442"
    INDEX 01 06:47:44
  TRACK 260 AUDIO
    TITLE "0:"
    INDEX 01 06:50:09
  TRACK 261 AUDIO
    TITLE "3:cjc038_0443"
    INDEX 01 06:50:15
  TRACK 262 AUDIO
    TITLE "0:"
    INDEX 01 06:52:45
  TRACK 263 AUDIO
    TITLE "2:cjc038_0444"
    INDEX 01 06:54:18
  TRACK 264 AUDIO
    TITLE "0:"
    INDEX 01 06:56:56
  TRACK 265 AUDIO
    TITLE "3:cjc038_0445"
    INDEX 01 06:56:62
  TRACK 266 AUDIO
    TITLE "0:"
    INDEX 01 06:59:21
  TRACK 267 AUDIO
    TITLE "2:cjc038_0446"
    INDEX 01 06:59:72
  TRACK 268 AUDIO
    TITLE "0:"
    INDEX 01 07:04:44
  TRACK 269 AUDIO
    TITLE "3:cjc038_0447"
    INDEX 01 07:04:58
  TRACK 270 AUDIO
    TITLE "0:"
    INDEX 01 07:09:24
  TRACK 271 AUDIO
    TITLE "2:cjc038_0448"
    INDEX 01 07:10:02
  TRACK 272 AUDIO
    TITLE "0:"
    INDEX 01 07:14:41
  TRACK 273 AUDIO
    TITLE "3:cjc038_0449"
    INDEX 01 07:14:50
  TRACK 274 AUDIO
    TITLE "0:"
    INDEX 01 07:18:72
  TRACK 275 AUDIO
    TITLE "2:cjc038_0450"
    INDEX 01 07:19:61
  TRACK 276 AUDIO
    TITLE "0:"
    INDEX 01 07:23:47
  TRACK 277 AUDIO
    TITLE "3:cjc038_0451"
    INDEX 01 07:23:55
  TRACK 278 AUDIO
    TITLE "0:"
    INDEX 01 07:27:35
  TRACK 279 AUDIO
    TITLE "2:cjc038_0452"
    INDEX 01 07:28:11
  TRACK 280 AUDIO
    TITLE "0:"
    INDEX 01 07:31:68
  TRACK 281 AUDIO
    TITLE "3:cjc038_0453"
    INDEX 01 07:32:01
  TRACK 282 AUDIO
    TITLE "0:"
    INDEX 01 07:35:43
  TRACK 283 AUDIO
    TITLE "2:cjc038_0454"
    INDEX 01 07:36:32
  TRACK 284 AUDIO
    TITLE "0:"
    INDEX 01 07:38:12
  TRACK 285 AUDIO
    TITLE "2:cjc038_0455"
    INDEX 01 07:38:14
  TRACK 286 AUDIO
    TITLE "0:"
    INDEX 01 07:39:60
  TRACK 287 AUDIO
    TITLE "3:cjc038_0456"
    INDEX 01 07:39:72
  TRACK 288 AUDIO
    TITLE "0:"
    INDEX 01 07:41:39
  TRACK 289 AUDIO
    TITLE "3:cjc038_0457"
    INDEX 01 07:41:51
  TRACK 290 AUDIO
    TITLE "0:"
    INDEX 01 07:43:11
  TRACK 291 AUDIO
    TITLE "2:cjc038_0458"
    INDEX 01 07:44:61
  TRACK 292 AUDIO
    TITLE "0:"
    INDEX 01 07:46:72
  TRACK 293 AUDIO
    TITLE "3:cjc038_0459"
    INDEX 01 07:47:01
  TRACK 294 AUDIO
    TITLE "0:"
    INDEX 01 07:49:06
  TRACK 295 AUDIO
    TITLE "2:cjc038_0460"
    INDEX 01 07:49:57
  TRACK 296 AUDIO
    TITLE "0:"
    INDEX 01 07:52:08
  TRACK 297 AUDIO
    TITLE "3:cjc038_0461"
    INDEX 01 07:52:20
  TRACK 298 AUDIO
    TITLE "0:"
    INDEX 01 07:54:36
  TRACK 299 AUDIO
    TITLE "2:cjc038_0462"
    INDEX 01 07:55:16
  TRACK 300 AUDIO
    TITLE "0:"
    INDEX 01 07:57:48
  TRACK 301 AUDIO
    TITLE "3:cjc038_0463"
    INDEX 01 07:57:58
  TRACK 302 AUDIO
    TITLE "0:"
    INDEX 01 08:00:07
  TRACK 303 AUDIO
    TITLE "2:cjc038_0464"
    INDEX 01 08:00:58
  TRACK 304 AUDIO
    TITLE "0:"
    INDEX 01 08:03:66
  TRACK 305 AUDIO
    TITLE "3:cjc038_0465"
    INDEX 01 08:03:72
  TRACK 306 AUDIO
    TITLE "0:"
    INDEX 01 08:07:00
  TRACK 307 AUDIO
    TITLE "2:cjc038_0466"
    INDEX 01 08:08:52
  TRACK 308 AUDIO
    TITLE "0:"
    INDEX 01 08:11:15
  TRACK 309 AUDIO
    TITLE "3:cjc038_0467"
    INDEX 01 08:11:23
  TRACK 310 AUDIO
    TITLE "0:"
    INDEX 01 08:13:45
  TRACK 311 AUDIO
    TITLE "2:cjc038_0468"
    INDEX 01 08:14:31
  TRACK 312 AUDIO
    TITLE "0:"
    INDEX 01 08:17:23
  TRACK 313 AUDIO
    TITLE "3:cjc038_0469"
    INDEX 01 08:17:39
  TRACK 314 AUDIO
    TITLE "0:"
    INDEX 01 08:20:06
  TRACK 315 AUDIO
    TITLE "2:cjc038_0470"
    INDEX 01 08:20:67
  TRACK 316 AUDIO
    TITLE "0:"
    INDEX 01 08:23:20
  TRACK 317 AUDIO
    TITLE "3:cjc038_0471"
    INDEX 01 08:23:32
  TRACK 318 AUDIO
    TITLE "0:"
    INDEX 01 08:25:48
  TRACK 319 AUDIO
    TITLE "2:cjc038_0472"
    INDEX 01 08:26:32
  TRACK 320 AUDIO
    TITLE "0:"
    INDEX 01 08:27:69
  TRACK 321 AUDIO
    TITLE "3:cjc038_0473"
    INDEX 01 08:28:08
  TRACK 322 AUDIO
    TITLE "0:"
    INDEX 01 08:29:34
  TRACK 323 AUDIO
    TITLE "2:cjc038_0474"
    INDEX 01 08:30:12
  TRACK 324 AUDIO
    TITLE "0:"
    INDEX 01 08:34:12
  TRACK 325 AUDIO
    TITLE "3:cjc038_0475"
    INDEX 01 08:34:22
  TRACK 326 AUDIO
    TITLE "0:"
    INDEX 01 08:38:06
  TRACK 327 AUDIO
    TITLE "2:cjc038_0476"
    INDEX 01 08:38:69
  TRACK 328 AUDIO
    TITLE "0:"
    INDEX 01 08:42:16
  TRACK 329 AUDIO
    TITLE "3:cjc038_0477"
    INDEX 01 08:42:19
  TRACK 330 AUDIO
    TITLE "0:"
    INDEX 01 08:45:22
  TRACK 331 AUDIO
    TITLE "2:cjc038_0478"
    INDEX 01 08:46:11
  TRACK 332 AUDIO
    TITLE "0:"
    INDEX 01 08:50:05
  TRACK 333 AUDIO
    TITLE "3:cjc038_0479"
    INDEX 01 08:50:15
  TRACK 334 AUDIO
    TITLE "0:"
    INDEX 01 08:53:72
  TRACK 335 AUDIO
    TITLE "2:cjc038_0480"
    INDEX 01 08:55:51
  TRACK 336 AUDIO
    TITLE "0:"
    INDEX 01 08:58:26
  TRACK 337 AUDIO
    TITLE "2:cjc038_0481"
    INDEX 01 08:58:30
  TRACK 338 AUDIO
    TITLE "0:"
    INDEX 01 09:01:36
  TRACK 339 AUDIO
    TITLE "3:cjc038_0482"
    INDEX 01 09:01:42
  TRACK 340 AUDIO
    TITLE "0:"
    INDEX 01 09:04:15
  TRACK 341 AUDIO
    TITLE "3:cjc038_0483"
    INDEX 01 09:04:17
  TRACK 342 AUDIO
    TITLE "0:"
    INDEX 01 09:07:10
  TRACK 343 AUDIO
    TITLE "2:cjc038_0484"
    INDEX 01 09:07:72
  TRACK 344 AUDIO
    TITLE "0:"
    INDEX 01 09:09:63
  TRACK 345 AUDIO
    TITLE "2:cjc038_0485"
    INDEX 01 09:09:73
  TRACK 346 AUDIO
    TITLE "0:"
    INDEX 01 09:12:42
  TRACK 347 AUDIO
    TITLE "3:cjc038_0486"
    INDEX 01 09:12:50
  TRACK 348 AUDIO
    TITLE "0:"
    INDEX 01 09:14:35
  TRACK 349 AUDIO
    TITLE "3:cjc038_0487"
    INDEX 01 09:14:51
  TRACK 350 AUDIO
    TITLE "0:"
    INDEX 01 09:17:14
  TRACK 351 AUDIO
    TITLE "2:cjc038_0488"
    INDEX 01 09:17:67
  TRACK 352 AUDIO
    TITLE "0:"
    INDEX 01 09:20:24
  TRACK 353 AUDIO
    TITLE "2:cjc038_0489"
    INDEX 01 09:20:40
  TRACK 354 AUDIO
    TITLE "0:"
    INDEX 01 09:23:30
  TRACK 355 AUDIO
    TITLE "3:cjc038_0490"
    INDEX 01 09:23:36
  TRACK 356 AUDIO
    TITLE "0:"
    INDEX 01 09:25:57
  TRACK 357 AUDIO
    TITLE "3:cjc038_0491"
    INDEX 01 09:26:09
  TRACK 358 AUDIO
    TITLE "0:"
    INDEX 01 09:28:61
  TRACK 359 AUDIO
    TITLE "2:cjc038_0492"
    INDEX 01 09:29:43
  TRACK 360 AUDIO
    TITLE "0:"
    INDEX 01 09:32:41
  TRACK 361 AUDIO
    TITLE "3:cjc038_0493"
    INDEX 01 09:32:49
  TRACK 362 AUDIO
    TITLE "0:"
    INDEX 01 09:35:41
  TRACK 363 AUDIO
    TITLE "2:cjc038_0494"
    INDEX 01 09:36:21
  TRACK 364 AUDIO
    TITLE "0:"
    INDEX 01 09:37:42
  TRACK 365 AUDIO
    TITLE "2:cjc038_0495"
    INDEX 01 09:37:52
  TRACK 366 AUDIO
    TITLE "0:"
    INDEX 01 09:39:10
  TRACK 367 AUDIO
    TITLE "3:cjc038_0496"
    INDEX 01 09:39:17
  TRACK 368 AUDIO
    TITLE "0:"
    INDEX 01 09:40:31
  TRACK 369 AUDIO
    TITLE "3:cjc038_0497"
    INDEX 01 09:40:46
  TRACK 370 AUDIO
    TITLE "0:"
    INDEX 01 09:41:65
  TRACK 371 AUDIO
    TITLE "2:cjc038_0498"
    INDEX 01 09:42:51
  TRACK 372 AUDIO
    TITLE "0:"
    INDEX 01 09:45:06
  TRACK 373 AUDIO
    TITLE "2:cjc038_0499"
    INDEX 01 09:45:16
  TRACK 374 AUDIO
    TITLE "0:"
    INDEX 01 09:50:29
  TRACK 375 AUDIO
    TITLE "3:cjc038_0500"
    INDEX 01 09:50:43
  TRACK 376 AUDIO
    TITLE "0:"
    INDEX 01 09:52:53
  TRACK 377 AUDIO
    TITLE "3:cjc038_0501"
    INDEX 01 09:53:06
  TRACK 378 AUDIO
    TITLE "0:"
    INDEX 01 09:58:09
  TRACK 379 AUDIO
    TITLE "2:cjc038_0502"
    INDEX 01 09:58:66
  TRACK 380 AUDIO
    TITLE "0:"
    INDEX 01 10:01:11
  TRACK 381 AUDIO
    TITLE "2:cjc038_0503"
    INDEX 01 10:01:21
  TRACK 382 AUDIO
    TITLE "0:"
    INDEX 01 10:02:42
  TRACK 383 AUDIO
    TITLE "3:cjc038_0504"
    INDEX 01 10:02:52
  TRACK 384 AUDIO
    TITLE "0:"
    INDEX 01 10:04:53
  TRACK 385 AUDIO
    TITLE "3:cjc038_0505"
    INDEX 01 10:05:05
  TRACK 386 AUDIO
    TITLE "0:"
    INDEX 01 10:06:14
  TRACK 387 AUDIO
    TITLE "2:cjc038_0506"
    INDEX 01 10:06:71
  TRACK 388 AUDIO
    TITLE "0:"
    INDEX 01 10:09:24
  TRACK 389 AUDIO
    TITLE "3:cjc038_0507"
    INDEX 01 10:09:32
  TRACK 390 AUDIO
    TITLE "0:"
    INDEX 01 10:11:55
  TRACK 391 AUDIO
    TITLE "2:cjc038_0508"
    INDEX 01 10:12:33
  TRACK 392 AUDIO
    TITLE "0:"
    INDEX 01 10:15:35
  TRACK 393 AUDIO
    TITLE "3:cjc038_0509"
    INDEX 01 10:15:43
  TRACK 394 AUDIO
    TITLE "0:"
    INDEX 01 10:18:39
  TRACK 395 AUDIO
    TITLE "2:cjc038_0510"
    INDEX 01 10:19:17
  TRACK 396 AUDIO
    TITLE "0:"
    INDEX 01 10:21:16
  TRACK 397 AUDIO
    TITLE "3:cjc038_0511"
    INDEX 01 10:21:22
  TRACK 398 AUDIO
    TITLE "0:"
    INDEX 01 10:23:05
